<svg width="100" height="100" viewBox="0 0 100 100" fill="none" xmlns="http://www.w3.org/2000/svg">
<g clip-path="url(#clip0_22_343)">
<path d="M98.0469 62.9402H96.0941V57.0807C96.0941 56.2203 96.0664 55.3643 96.0174 54.5121C96.0164 54.4922 96.0174 54.4727 96.016 54.4525C96.0155 54.4465 96.0147 54.4407 96.0138 54.4348C96.013 54.4291 96.0122 54.4234 96.0117 54.4176C95.4189 44.4934 91.5215 35.1719 84.8439 27.7191L88.0793 23.1746C88.198 23.1855 88.3174 23.193 88.4375 23.193C88.656 23.193 88.8766 23.1746 89.0967 23.1375C90.1271 22.9641 91.0271 22.4014 91.6311 21.5533L93.8967 18.3711C95.1457 16.6166 94.7346 14.1728 92.9801 12.9234L80.2512 3.86172C78.4971 2.61289 76.0529 3.02383 74.8033 4.77851L72.5381 7.96054C71.934 8.80879 71.6967 9.84336 71.8701 10.874C71.9273 11.2146 72.0311 11.5393 72.1699 11.8453L68.9615 16.3523C64.225 14.3615 59.1453 13.2141 53.907 12.9852L53.9068 7.08086C53.9068 6.00234 53.0322 5.12773 51.9537 5.12773C38.1244 5.12773 25.091 10.5449 15.2547 20.3816C5.41816 30.2182 0.00078125 43.2516 0.00078125 57.0809C0.00078125 58.1596 0.875391 59.034 1.95391 59.034H7.81328V62.9404H1.95312C0.874609 62.9404 0 63.8148 0 64.8936V94.908C0 95.9867 0.874609 96.8611 1.95312 96.8611H98.0469C99.1254 96.8611 100 95.9867 100 94.908V64.8934C100 63.8146 99.1254 62.9402 98.0469 62.9402ZM39.5539 62.9402V57.0807C39.5539 46.0668 41.0143 35.709 43.666 27.9148C46.0238 20.9842 49.1221 16.8463 51.9535 16.8463C54.5584 16.8463 57.1051 17.098 59.5734 17.5732C58.3387 23.1879 61.5137 25.9262 64.6037 27.249C74.4223 31.4525 81.5656 40.1701 83.7123 50.5686C84.3145 53.4848 85.7963 55.3863 88.117 56.2205C89.1697 56.599 90.2635 56.7103 91.3322 56.7103C91.6186 56.7103 91.9017 56.7006 92.183 56.6875C92.1835 56.7383 92.1844 56.789 92.1853 56.8397C92.1867 56.9199 92.1881 57.0001 92.1881 57.0807V62.9402H39.5539ZM91.958 52.7828C89.25 52.89 88.0793 52.4019 87.5381 49.7787C85.133 38.1291 77.134 28.3643 66.141 23.6582C64.0117 22.7465 62.7236 21.4654 63.3619 18.4965C78.6816 23.034 90.217 36.465 91.958 52.7828ZM77.985 7.04375L90.7141 16.1057L88.4486 19.2879L75.7197 10.226L77.985 7.04375ZM75.0453 14.541L84.592 21.3373L82.0687 24.8816C79.1676 22.1619 75.9672 19.8744 72.5445 18.0539L75.0453 14.541ZM24.1006 25.4049C23.3512 24.6289 22.1152 24.6072 21.3387 25.3562C17.1121 29.4371 13.7869 34.2197 11.4553 39.5717C9.29844 44.5221 8.09316 49.7465 7.8582 55.1275H3.9457C4.94902 30.1859 25.0588 10.0764 50.0002 9.07304L50.0004 12.983C45.4877 13.1814 41.0648 14.0678 36.8264 15.6258C35.8139 15.998 35.2949 17.1205 35.667 18.1328C36.0393 19.1453 37.1617 19.6643 38.174 19.2922C40.2096 18.5439 42.2926 17.968 44.4094 17.5621C42.7553 19.8072 41.2631 22.8496 39.9678 26.6566C37.1818 34.8453 35.6477 45.6502 35.6477 57.0807V62.9402H11.7191V57.0807C11.7191 46.1137 16.099 35.8451 24.0521 28.1664C24.8279 27.4172 24.8496 26.1809 24.1006 25.4049ZM96.0938 66.8465V70.7529H3.90625V66.8465H96.0938ZM64.8967 92.9547V85.89C64.8967 84.0055 66.4301 82.4721 68.3146 82.4721C70.1992 82.4721 71.7326 84.0055 71.7326 85.89V92.9547H64.8967ZM75.6389 92.9547V85.89C75.6389 81.8514 72.3533 78.5658 68.3146 78.5658C64.276 78.5658 60.9904 81.8514 60.9904 85.89V92.9547H3.90625V74.6594H96.0938V92.9547H75.6389Z" fill="#2E3A59"/>
<path d="M98.0469 62.9402H96.0941V57.0807C96.0941 56.2203 96.0664 55.3643 96.0174 54.5121C96.0164 54.4922 96.0174 54.4727 96.016 54.4525C96.0155 54.4465 96.0147 54.4407 96.0138 54.4348C96.013 54.4291 96.0122 54.4234 96.0117 54.4176C95.4189 44.4934 91.5215 35.1719 84.8439 27.7191L88.0793 23.1746C88.198 23.1855 88.3174 23.193 88.4375 23.193C88.656 23.193 88.8766 23.1746 89.0967 23.1375C90.1271 22.9641 91.0271 22.4014 91.6311 21.5533L93.8967 18.3711C95.1457 16.6166 94.7346 14.1728 92.9801 12.9234L80.2512 3.86172C78.4971 2.61289 76.0529 3.02383 74.8033 4.77851L72.5381 7.96054C71.934 8.80879 71.6967 9.84336 71.8701 10.874C71.9273 11.2146 72.0311 11.5393 72.1699 11.8453L68.9615 16.3523C64.225 14.3615 59.1453 13.2141 53.907 12.9852L53.9068 7.08086C53.9068 6.00234 53.0322 5.12773 51.9537 5.12773C38.1244 5.12773 25.091 10.5449 15.2547 20.3816C5.41816 30.2182 0.00078125 43.2516 0.00078125 57.0809C0.00078125 58.1596 0.875391 59.034 1.95391 59.034H7.81328V62.9404H1.95312C0.874609 62.9404 0 63.8148 0 64.8936V94.908C0 95.9867 0.874609 96.8611 1.95312 96.8611H98.0469C99.1254 96.8611 100 95.9867 100 94.908V64.8934C100 63.8146 99.1254 62.9402 98.0469 62.9402ZM39.5539 62.9402V57.0807C39.5539 46.0668 41.0143 35.709 43.666 27.9148C46.0238 20.9842 49.1221 16.8463 51.9535 16.8463C54.5584 16.8463 57.1051 17.098 59.5734 17.5732C58.3387 23.1879 61.5137 25.9262 64.6037 27.249C74.4223 31.4525 81.5656 40.1701 83.7123 50.5686C84.3145 53.4848 85.7963 55.3863 88.117 56.2205C89.1697 56.599 90.2635 56.7103 91.3322 56.7103C91.6186 56.7103 91.9017 56.7006 92.183 56.6875C92.1835 56.7383 92.1844 56.789 92.1853 56.8397C92.1867 56.9199 92.1881 57.0001 92.1881 57.0807V62.9402H39.5539ZM91.958 52.7828C89.25 52.89 88.0793 52.4019 87.5381 49.7787C85.133 38.1291 77.134 28.3643 66.141 23.6582C64.0117 22.7465 62.7236 21.4654 63.3619 18.4965C78.6816 23.034 90.217 36.465 91.958 52.7828ZM77.985 7.04375L90.7141 16.1057L88.4486 19.2879L75.7197 10.226L77.985 7.04375ZM75.0453 14.541L84.592 21.3373L82.0687 24.8816C79.1676 22.1619 75.9672 19.8744 72.5445 18.0539L75.0453 14.541ZM24.1006 25.4049C23.3512 24.6289 22.1152 24.6072 21.3387 25.3562C17.1121 29.4371 13.7869 34.2197 11.4553 39.5717C9.29844 44.5221 8.09316 49.7465 7.8582 55.1275H3.9457C4.94902 30.1859 25.0588 10.0764 50.0002 9.07304L50.0004 12.983C45.4877 13.1814 41.0648 14.0678 36.8264 15.6258C35.8139 15.998 35.2949 17.1205 35.667 18.1328C36.0393 19.1453 37.1617 19.6643 38.174 19.2922C40.2096 18.5439 42.2926 17.968 44.4094 17.5621C42.7553 19.8072 41.2631 22.8496 39.9678 26.6566C37.1818 34.8453 35.6477 45.6502 35.6477 57.0807V62.9402H11.7191V57.0807C11.7191 46.1137 16.099 35.8451 24.0521 28.1664C24.8279 27.4172 24.8496 26.1809 24.1006 25.4049ZM96.0938 66.8465V70.7529H3.90625V66.8465H96.0938ZM64.8967 92.9547V85.89C64.8967 84.0055 66.4301 82.4721 68.3146 82.4721C70.1992 82.4721 71.7326 84.0055 71.7326 85.89V92.9547H64.8967ZM75.6389 92.9547V85.89C75.6389 81.8514 72.3533 78.5658 68.3146 78.5658C64.276 78.5658 60.9904 81.8514 60.9904 85.89V92.9547H3.90625V74.6594H96.0938V92.9547H75.6389Z" stroke="#2E3A59"/>
<path d="M29.6125 23.2908C30.691 23.2908 31.5656 22.4164 31.5656 21.3377C31.5656 20.259 30.691 19.3846 29.6125 19.3846H29.6109C28.5324 19.3846 27.6586 20.259 27.6586 21.3377C27.6586 22.4164 28.534 23.2908 29.6125 23.2908V23.2908Z" fill="#2E3A59"/>
</g>
<defs>
<clipPath id="clip0_22_343">
<rect width="100" height="100" fill="white"/>
</clipPath>
</defs>
</svg>
