<svg width="24" height="24" viewBox="0 0 24 24" fill="none" xmlns="http://www.w3.org/2000/svg">
<g clip-path="url(#clip0_9_226)">
<rect width="24" height="24" fill="white"/>
<rect width="24" height="24" fill="black"/>
<rect width="24" height="24" fill="#ADE1DD"/>
<g clip-path="url(#clip1_9_226)">
<path d="M11.8282 9.89239C13.7444 9.89239 15.2978 8.33898 15.2978 6.42276C15.2978 4.50653 13.7444 2.95312 11.8282 2.95312C9.91193 2.95312 8.35852 4.50653 8.35852 6.42276C8.35852 8.33898 9.91193 9.89239 11.8282 9.89239Z" fill="#F16842"/>
<path fill-rule="evenodd" clip-rule="evenodd" d="M14.4956 4.20378C13.8591 3.43955 12.9004 2.95312 11.8282 2.95312C9.91193 2.95312 8.35852 4.50653 8.35852 6.42276C8.35852 7.05552 8.52791 7.64872 8.82381 8.15949C11.1118 7.47056 13.0893 6.06504 14.4956 4.20378Z" fill="#F16842"/>
<path d="M11.6041 6.60592H11.0147C10.9248 6.60592 10.8802 6.5657 10.8802 6.48561C10.8802 6.40552 10.9248 6.3653 11.0147 6.3653H11.4767L10.7744 5.39913C10.721 5.32715 10.7082 5.2697 10.7362 5.22644C10.764 5.18319 10.8265 5.16156 10.9238 5.16156H11.0728C11.1894 5.16156 11.2732 5.20684 11.3239 5.29775L11.5862 5.74755C11.6903 5.93544 11.7862 6.1034 11.8738 6.25142H11.892C11.9454 6.1649 12.0414 5.99695 12.1796 5.74755L12.4381 5.29775C12.4891 5.20684 12.5726 5.16156 12.6892 5.16156H12.8423C12.9342 5.16156 12.9937 5.18217 13.0207 5.2234C13.0474 5.26463 13.0353 5.31904 12.9842 5.38663L12.2712 6.36564H12.7369C12.8267 6.36564 12.8714 6.40586 12.8714 6.48595C12.8714 6.56604 12.8264 6.60625 12.7369 6.60625H12.1509V6.81848H12.7369C12.8267 6.81848 12.8714 6.85768 12.8714 6.93575C12.8714 7.01618 12.8264 7.05605 12.7369 7.05605H12.1509V7.31897C12.1509 7.47746 12.06 7.55654 11.8781 7.55654C11.696 7.55654 11.6051 7.47746 11.6051 7.31897V7.05605H11.0157C10.9258 7.05605 10.8812 7.01584 10.8812 6.93575C10.8812 6.85768 10.9258 6.81848 11.0157 6.81848H11.6051V6.60592H11.6041Z" fill="#FCFCFC"/>
<path d="M23.4609 24H0.433594C0.433594 24 3.37622 17.9751 4.03119 16.5926C4.77973 15.0123 6.90042 10.2717 6.90042 10.2717H16.8807L19.8749 16.5926L23.4609 24Z" fill="#5795FF"/>
<path fill-rule="evenodd" clip-rule="evenodd" d="M18.6602 14.0284C15.8399 17.6274 11.4531 19.94 6.52616 19.94C5.18444 19.94 3.88278 19.7685 2.6419 19.4462C3.24271 18.2222 3.79194 17.0977 4.0312 16.5926C4.77974 15.0123 6.90043 10.2717 6.90043 10.2717H16.8807L18.6602 14.0284Z" fill="#5795FF"/>
<path d="M17.4174 11.1896C16.8377 9.61209 15.4314 8.67688 14.2773 9.10121C14.1224 9.15829 13.9807 9.23782 13.852 9.33559C13.728 9.4301 13.5521 9.42074 13.445 9.30706C13.0281 8.86636 12.4943 8.60156 11.9119 8.60156C11.3294 8.60156 10.7956 8.86636 10.3793 9.30659C10.2721 9.41981 10.0967 9.42916 9.97225 9.33513C9.84359 9.23735 9.70231 9.15782 9.54745 9.10121C8.39284 8.67688 6.987 9.61209 6.40735 11.1896C6.33343 11.3913 5.29156 13.7884 5.29156 13.7884C5.29156 13.7884 5.98957 13.0011 6.33343 13.6013C6.53928 14.1763 6.92103 14.6212 7.44782 14.8149C8.24407 15.1073 9.15962 14.7531 9.84125 13.9877C9.96476 13.8493 10.1804 13.8502 10.3025 13.9905C10.7292 14.4813 11.2934 14.7807 11.9119 14.7807C12.5308 14.7807 13.095 14.4813 13.5217 13.9901C13.6433 13.8497 13.8595 13.8488 13.983 13.9873C14.6651 14.7531 15.5806 15.1077 16.3774 14.8153C16.9084 14.6203 17.2934 14.1707 17.4978 13.5891C17.5427 13.4619 17.6597 13.3679 17.7944 13.3767C18.1191 13.3987 18.5402 13.7782 18.5402 13.7782C18.5402 13.7782 17.5194 11.467 17.4174 11.1896Z" fill="white"/>
<path d="M10.4279 16.4355C11.0445 17.0563 12.0531 17.1812 12.8279 16.799C13.0365 16.696 13.2283 16.5487 13.3799 16.3718C13.4515 16.2881 13.4683 16.1552 13.3799 16.0743C13.3013 16.0022 13.1586 15.9849 13.0824 16.0743C13.0211 16.1459 12.9542 16.21 12.8821 16.2703C12.8723 16.2787 12.847 16.3035 12.8835 16.2698C12.8765 16.2764 12.8672 16.282 12.8592 16.2876C12.841 16.3007 12.8227 16.3138 12.804 16.3265C12.7647 16.3527 12.724 16.3775 12.6819 16.4004C12.6426 16.4219 12.6019 16.442 12.5607 16.4607C12.5518 16.4649 12.5425 16.4701 12.5331 16.4729C12.5785 16.4584 12.5528 16.4649 12.5415 16.4691C12.5158 16.479 12.4901 16.4893 12.4639 16.4982C12.3759 16.5286 12.2852 16.5529 12.1935 16.5697C12.1734 16.5735 12.1537 16.5767 12.1336 16.58C12.1299 16.5805 12.0803 16.5861 12.1163 16.5828C12.1476 16.5796 12.1144 16.5828 12.1065 16.5838C12.0583 16.5884 12.0106 16.5927 11.9624 16.5945C11.8683 16.5983 11.7738 16.595 11.6803 16.5856C11.6676 16.5842 11.655 16.5828 11.6424 16.5814C11.6265 16.5796 11.6101 16.5852 11.6531 16.5828C11.6321 16.5842 11.6059 16.5753 11.5853 16.5716C11.5376 16.5632 11.4908 16.5529 11.444 16.5407C11.3996 16.5295 11.3561 16.5164 11.3125 16.5019C11.2934 16.4953 11.2742 16.4888 11.255 16.4818C11.2433 16.4776 11.2311 16.4729 11.2194 16.4682C11.1942 16.4584 11.197 16.4612 11.2204 16.4691C11.1226 16.4369 11.0258 16.3746 10.9406 16.318C10.9196 16.304 10.899 16.2895 10.8784 16.2745C10.8704 16.2689 10.8616 16.2628 10.8541 16.2563C10.8938 16.2914 10.8583 16.2591 10.8489 16.2516C10.8054 16.216 10.7642 16.1782 10.7249 16.1384C10.6473 16.0603 10.5041 16.0546 10.4274 16.1384C10.3507 16.2221 10.3451 16.3517 10.4279 16.4355Z" fill="white"/>
<path d="M8.77176 16.26C8.90947 16.26 9.02111 16.1484 9.02111 16.0107C9.02111 15.8729 8.90947 15.7613 8.77176 15.7613C8.63404 15.7613 8.5224 15.8729 8.5224 16.0107C8.5224 16.1484 8.63404 16.26 8.77176 16.26Z" fill="white"/>
<path d="M15.0094 16.26C15.1471 16.26 15.2587 16.1484 15.2587 16.0107C15.2587 15.8729 15.1471 15.7613 15.0094 15.7613C14.8717 15.7613 14.76 15.8729 14.76 16.0107C14.76 16.1484 14.8717 16.26 15.0094 16.26Z" fill="white"/>
</g>
</g>
<defs>
<clipPath id="clip0_9_226">
<rect width="24" height="24" fill="white"/>
</clipPath>
<clipPath id="clip1_9_226">
<rect width="23.9531" height="23.9531" fill="white" transform="translate(-0.0703125 0.0234375)"/>
</clipPath>
</defs>
</svg>
